<?xml version="1.0" encoding="UTF-8" standalone="no"?>
<!-- Created with Inkscape (http://www.inkscape.org/) -->

<svg
   xmlns:dc="http://purl.org/dc/elements/1.1/"
   xmlns:cc="http://creativecommons.org/ns#"
   xmlns:rdf="http://www.w3.org/1999/02/22-rdf-syntax-ns#"
   xmlns:svg="http://www.w3.org/2000/svg"
   xmlns="http://www.w3.org/2000/svg"
   xmlns:sodipodi="http://sodipodi.sourceforge.net/DTD/sodipodi-0.dtd"
   xmlns:inkscape="http://www.inkscape.org/namespaces/inkscape"
   id="svg2"
   version="1.1"
   inkscape:version="0.91 r13725"
   width="868.7875"
   height="868.775"
   xml:space="preserve"
   sodipodi:docname="wdkalogo_bw.svg"><metadata
     id="metadata8"><rdf:RDF><cc:Work
         rdf:about=""><dc:format>image/svg+xml</dc:format><dc:type
           rdf:resource="http://purl.org/dc/dcmitype/StillImage" /><dc:title></dc:title></cc:Work></rdf:RDF></metadata><defs
     id="defs6" /><sodipodi:namedview
     pagecolor="#ffffff"
     bordercolor="#666666"
     borderopacity="1"
     objecttolerance="10"
     gridtolerance="10"
     guidetolerance="10"
     inkscape:pageopacity="0"
     inkscape:pageshadow="2"
     inkscape:window-width="1920"
     inkscape:window-height="1054"
     id="namedview4"
     showgrid="false"
     inkscape:zoom="0.76833332"
     inkscape:cx="228.34582"
     inkscape:cy="446.40655"
     inkscape:window-x="0"
     inkscape:window-y="1"
     inkscape:window-maximized="1"
     inkscape:current-layer="g10" /><g
     id="g10"
     inkscape:groupmode="layer"
     inkscape:label="ink_ext_XXXXXX"
     transform="matrix(1.25,0,0,-1.25,0,868.775)"><g
       id="g12"
       transform="scale(0.1,0.1)"
       style="fill:#000000;fill-opacity:1"><path
         d="m 5916.9,2112.37 342.74,783.64 342.67,-783.64 -685.41,0 z M 2865.97,1466.6 c -92.64,0 -180.91,6.31 -264.31,19.12 l 0,1619.12 264.31,0 c 453.85,0 821.81,-380.39 821.81,-834.22 0,-453.82 -367.96,-804.02 -821.81,-804.02 z M 0,6950.2 l 6950.1,0 0,-5252.84 -689.74,1583.81 -856.47,-1964.39 165.12,0 281.56,643.52 818.24,0 L 6950.3,1316.78 6950.1,0 0,0 0.199219,2877.71 690.605,1288.35 l 408.155,933.21 407.11,-928.31 856.56,1964.91 -165.15,0 -692.13,-1582.93 -321.77,739.2 199.15,454.12 -1.06,389.61 -282.71,-649.83 -282.733,649.83 -0.925,-389.61 L 1014.31,2414.43 692.426,1675.23 0.199219,3258.16 0,6950.2 z m 4370.14,-4540.34 751.43,688.51 0,206.02 -966.39,-885.03 1009.43,-1102.05 206.26,0 -1000.73,1092.55 z m -1504.17,846.93 -416.39,0 0,-1942.17 136.4,0 c 89.39,-9.36 182.57,-12.5 279.99,-12.5 544.49,0 986.1,423.96 986.1,968.5 0,544.63 -441.61,986.17 -986.1,986.17 z m 1135.26,2.75 0,-1942.23 152.08,0 0,1942.23 -152.08,0"
         style="fill:#000000;fill-opacity:1;fill-rule:evenodd;stroke:none"
         id="path14" /></g></g></svg>